# AST/ASF file generated using VICON BodyLanguage
# -----------------------------------------------
:version 1.10
:name VICON
:units
  mass 1.0
  length 0.45
  angle deg
:documentation
   .ast/.asf automatically generated from VICON data using
   VICON BodyBuilder and BodyLanguage model FoxedUp or BRILLIANT.MOD
:root
   order TX TY TZ RX RY RZ
   axis XYZ
   position 0 0 0  
   orientation 0 0 0 
:bonedata
  begin
     id 1 
     name lhipjoint
     direction 0.54267 -0.795011 0.271047 
     length 2.39899 
     axis 0 0 0  XYZ
  end
  begin
     id 2 
     name lfemur
     direction 0.34202 -0.939693 0  
     length 7.49701  
     axis 0 0 20  XYZ
    dof rx ry rz
    limits (-160.0 20.0)
           (-70.0 70.0)
           (-60.0 70.0)
  end
  begin
     id 3 
     name ltibia
     direction 0.34202 -0.939693 0   
     length 8.1668   
     axis 0 0 20   XYZ
    dof rx
    limits (-10.0 170.0)
  end
  begin
     id 4 
     name lfoot
     direction 0.0736283 -0.202292 0.976554   
     length 2.13544   
     axis -90 7.62852e-016 20   XYZ
    dof rx rz
    limits (-45.0 90.0)
           (-70.0 20.0)
  end
  begin
     id 5 
     name ltoes
     direction 1.53557e-011 -4.22024e-011 1   
     length 1.07411   
     axis -90 7.62852e-016 20   XYZ
    dof rx
    limits (-90.0 20.0)
  end
  begin
     id 6 
     name rhipjoint
     direction -0.538061 -0.797813 0.272002   
     length 2.39057  
     axis 0 0 0  XYZ 
  end
  begin
     id 7 
     name rfemur
     direction -0.34202 -0.939693 0   
     length 7.50152   
     axis 0 0 -20   XYZ
    dof rx ry rz
    limits (-160.0 20.0)
           (-70.0 70.0)
           (-70.0 60.0)
  end
  begin
     id 8 
     name rtibia
     direction -0.34202 -0.939693 0   
     length 8.05793   
     axis 0 0 -20   XYZ
    dof rx
    limits (-10.0 170.0)
 end
 begin
     id 9 
     name rfoot
     direction -0.0765195 -0.210236 0.974652   
     length 2.28698  
     axis -90 -7.62852e-016 -20   XYZ
    dof rx rz
    limits (-45.0 90.0)
           (-20.0 70.0)
  end
  begin
     id 10 
     name rtoes
     direction -1.53542e-011 -4.21847e-011 1   
     length 1.14762   
     axis -90 -7.62852e-016 -20   XYZ
    dof rx
    limits (-90.0 20.0)
  end
  begin
     id 11 
     name lowerback
     direction -0.0217239 0.996592 -0.0795765   
     length 2.08176   
     axis 0 0 0   XYZ
    dof rx ry rz
    limits (-20.0 45.0)
           (-30.0 30.0)
           (-30.0 30.0)
  end
  begin
     id 12 
     name upperback
     direction -0.00563773 0.999651 -0.0258155   
     length 2.08898   
     axis 0 0 0   XYZ
    dof rx ry rz
    limits (-20.0 45.0)
           (-30.0 30.0)
           (-30.0 30.0)
  end
  begin
     id 13 
     name thorax
     direction 0.0032706 0.999923 0.0119599   
     length 2.0968   
     axis 0 0 0   XYZ
    dof rx ry rz
    limits (-20.0 45.0)
           (-30.0 30.0)
           (-30.0 30.0)
  end
  begin
     id 14 
     name lowerneck
     direction -0.0285886 0.99568 0.0883427   
     length 1.81272   
     axis 0 0 0   XYZ
    dof rx ry rz
    limits (-20.0 45.0)
           (-30.0 30.0)
           (-30.0 30.0)
  end
  begin
     id 15 
     name upperneck
     direction 0.0807535 0.97985 -0.18268   
     length 1.82518   
     axis 0 0 0   XYZ
    dof rx ry rz
    limits (-20.0 45.0)
           (-30.0 30.0)
           (-30.0 30.0)
  end
  begin
     id 16
     name head
     direction 0.0236605 0.997053 -0.0729767  
     length 1.84443  
     axis 0 0 0   XYZ
    dof rx ry rz
    limits (-20.0 45.0)
           (-30.0 30.0)
           (-30.0 30.0)
  end
  begin
     id 17 
     name lclavicle
     direction 0.918986 0.39378 -0.0200683  
     length 3.27822  
     axis 0 0 0   XYZ
    dof ry rz
    limits (-20.0 10.0)
           (0.0 20.0)
  end
  begin
     id 18 
     name lhumerus
     direction 1 -4.4897e-011 2.09544e-027   
     length 5.5568   
     axis 180 -30 -90   XYZ
    dof rx ry rz
    limits (-60.0 90.0)
           (-90.0 90.0)
           (-90.0 90.0)
  end
  begin
     id 19
     name lradius
     direction 1 -4.48957e-011 -1.27696e-026   
     length 3.63979   
     axis 180 -30 -90   XYZ
    dof rx
    limits (-10.0 170.0)
  end
  begin
     id 20
     name lwrist
     direction 1 -4.49001e-011 -1.49001e-026   
     length 1.8199   
     axis 9.0955e-015 90 90   XYZ
    dof ry
    limits (-180.0 0.0)
 end
  begin
     id 21 
     name lhand
     direction 1 -4.48709e-011 -2.9758e-026   
     length 0.569419   
     axis 1.90115e-014 90 90   XYZ
    dof rx rz
    limits (-90.0 90.0)
           (-45.0 45.0)
  end
  begin
     id 22 
     name lfingers
     direction 1 -4.49175e-011 -5.96505e-026   
     length 0.45908   
     axis 3.80223e-014 90 90   XYZ
    dof rx
    limits (0.0 90.0)
  end
  begin
     id 23
     name lthumb
     direction 0.707107 -6.34864e-011 0.707107   
     length 0.65915   
     axis -90 45 -3.84942e-014   XYZ
    dof rx rz
    limits (-45.0 45.0)
           (-45.0 45.0)
  end
  begin
     id 24 
     name rclavicle
     direction -0.911913 0.396426 -0.106115   
     length 3.46301  
     axis 0 0 0   XYZ 
    dof ry rz
    limits (-10.0 20.0)
           (-20.0 0.0)
  end
  begin
     id 25 
     name rhumerus
     direction -1 -4.48965e-011 7.78516e-028  
     length 5.34339   
     axis 180 30 90   XYZ
    dof rx ry rz
    limits (-90.0 60.0)
           (-90.0 90.0)
           (-90.0 90.0)
  end
  begin
     id 26 
     name rradius
     direction -1 -4.48948e-011 -5.79823e-027   
     length 3.65101   
     axis 180 30 90   XYZ
    dof rx
    limits (-10.0 170.0)
  end
  begin
     id 27 
     name rwrist
     direction -1 -4.48995e-011 -1.48996e-026   
     length 1.8255   
     axis 9.0955e-015 -90 -90   XYZ
    dof ry
    limits (-180.0 0.0)
  end
  begin
     id 28
     name rhand
     direction -1 -4.48957e-011 -2.97937e-026   
     length 0.694249   
     axis 1.90115e-014 -90 -90   XYZ
    dof rx rz
    limits (-90.0 90.0)
           (-45.0 45.0)
  end
  begin
     id 29
     name rfingers
     direction -1 -4.4898e-011 -5.95943e-026   
     length 0.559721   
     axis 3.80223e-014 -90 -90   XYZ
    dof rx
    limits (0.0 90.0)
  end
  begin
     id 30
     name rthumb
     direction -0.707107 -6.34969e-011 0.707107   
     length 0.803651   
     axis -90 -45 3.84942e-014   XYZ
    dof rx rz
    limits (-45.0 45.0)
           (-45.0 45.0)
  end
:hierarchy
  begin
    root lhipjoint rhipjoint lowerback
    lhipjoint lfemur
    lfemur ltibia
    ltibia lfoot
    lfoot ltoes
    rhipjoint rfemur
    rfemur rtibia
    rtibia rfoot
    rfoot rtoes
    lowerback upperback
    upperback thorax
    thorax lowerneck lclavicle rclavicle
    lowerneck upperneck
    upperneck head
    lclavicle lhumerus
    lhumerus lradius
    lradius lwrist
    lwrist lhand lthumb
    lhand lfingers
    rclavicle rhumerus
    rhumerus rradius
    rradius rwrist
    rwrist rhand rthumb
    rhand rfingers
  end

#!OML:ASF H:\Terrain\Walking\May29\JustinRory\rory.ASF
:FULLY-SPECIFIED
:DEGREES
244
root 9.3125 17.3073 -7.80759 -12.4712 40.6775 -8.33434
lowerback 10.3998 5.27638 -11.7789
upperback 6.1278 6.12011 -5.03058
thorax 0.0664965 2.93589 0.609145
lowerneck 2.28455 -18.2231 -15.3388
upperneck 16.2711 -29.0847 23.3912
head 10.811 -13.6573 6.83265
rclavicle -4.53229e-014 -9.54166e-015
rhumerus 2.13931 -49.0287 -52.8121
rradius 13.5872
rwrist 25.7924
rhand -19.1442 21.568
rfingers 7.12502
rthumb 7.166 -8.29067
lclavicle -4.53229e-014 -9.54166e-015
lhumerus -31.0044 12.2202 40.2159
lradius 58.2756
lwrist 27.1293
lhand -32.665 22.5761
lfingers 7.12502
lthumb -5.89076 52.4742
rfemur -14.6783 -7.0193 9.95869
rtibia 29.4742
rfoot -0.202987 -21.6174
rtoes 10.269
lfemur -20.1165 -5.72123 -8.0651
ltibia 60.3304
lfoot -18.2463 12.7382
ltoes -16.7979
245
root 9.27401 17.3479 -7.6722 -12.1461 41.1495 -7.95552
lowerback 10.4646 5.14031 -12.2682
upperback 6.19941 5.90143 -5.13701
thorax 0.104411 2.81635 0.784341
lowerneck 2.05633 -18.1483 -15.9368
upperneck 16.8335 -29.1149 23.4943
head 11.1944 -13.6493 6.91918
rclavicle -3.81667e-014 2.22639e-014
rhumerus 3.25495 -55.5024 -55.087
rradius 13.78
rwrist 30.9976
rhand -19.9189 22.099
rfingers 7.12502
rthumb 6.41808 -7.78381
lclavicle -3.81667e-014 2.22639e-014
lhumerus -30.7566 12.1412 41.3056
lradius 58.5884
lwrist 27.2508
lhand -30.8498 23.1205
lfingers 7.12502
lthumb -4.1381 53.0601
rfemur -14.4139 -6.81644 9.9138
rtibia 29.6915
rfoot -1.88926 -22.397
rtoes 15.2508
lfemur -20.6467 -5.83 -8.30867
ltibia 60.935
lfoot -16.6241 14.0232
ltoes -16.8868
246
root 9.23306 17.3873 -7.53648 -12.5211 41.4661 -8.37341
lowerback 10.8131 5.07066 -12.0665
upperback 6.22033 5.77283 -5.13216
thorax -0.034812 2.76408 0.66991
lowerneck 1.89515 -18.1647 -16.1727
upperneck 17.3871 -29.2032 23.303
head 11.4578 -13.6711 6.85241
rclavicle 2.3059e-014 -3.49861e-014
rhumerus 3.65785 -56.6994 -55.5455
rradius 12.5588
rwrist 30.9253
rhand -21.3654 22.4683
rfingers 7.12502
rthumb 5.02157 -7.45219
lclavicle 2.3059e-014 -3.49861e-014
lhumerus -30.4355 11.7208 42.4089
lradius 58.7913
lwrist 26.8305
lhand -30.0789 23.9799
lfingers 7.12502
lthumb -3.39368 53.9326
rfemur -13.8615 -6.48469 10.5918
rtibia 29.6747
rfoot -3.03356 -22.9812
rtoes 17.2104
lfemur -21.1033 -5.8679 -7.81902
ltibia 61.6615
lfoot -14.7763 15.087
ltoes -14.4959
247
root 9.20254 17.4273 -7.40974 -13.1094 41.685 -9.15838
lowerback 11.2683 4.98712 -11.385
upperback 6.18626 5.64602 -5.01615
thorax -0.269075 2.72509 0.404768
lowerneck 1.63114 -18.1547 -16.4997
upperneck 17.9316 -29.2131 23.0338
head 11.7198 -13.6582 6.77606
rclavicle -1.07344e-013 7.95139e-014
rhumerus 4.21155 -59.8253 -56.4009
rradius 12.1572
rwrist 33.0881
rhand -21.9113 23.026
rfingers 7.12502
rthumb 4.49445 -6.90633
lclavicle -1.07344e-013 7.95139e-014
lhumerus -30.2587 11.1186 43.5371
lradius 58.848
lwrist 26.3362
lhand -29.588 23.9108
lfingers 7.12502
lthumb -2.91961 53.8706
rfemur -13.2248 -6.15572 11.5608
rtibia 29.3958
rfoot -3.13629 -23.2413
rtoes 14.2929
lfemur -21.6345 -5.77632 -7.07977
ltibia 62.4675
lfoot -13.1628 16.0871
ltoes -9.69927
248
root 9.18132 17.4697 -7.29569 -13.5305 41.8297 -9.78985
lowerback 11.7002 4.92711 -10.7234
upperback 6.17769 5.56246 -4.87642
thorax -0.471115 2.70331 0.171492
lowerneck 1.19177 -18.1041 -16.8729
upperneck 18.3909 -29.1314 22.8142
head 11.9808 -13.5934 6.72553
rclavicle -5.88403e-014 3.49861e-014
rhumerus 4.69218 -62.5965 -57.1851
rradius 12.3872
rwrist 34.8497
rhand -22.7609 23.3681
rfingers 7.12502
rthumb 3.67396 -6.57994
lclavicle -5.88403e-014 3.49861e-014
lhumerus -29.9758 10.6817 44.7928
lradius 58.6044
lwrist 25.3823
lhand -29.0034 23.8472
lfingers 7.12502
lthumb -2.35498 53.814
rfemur -12.6428 -5.71009 12.3634
rtibia 28.8923
rfoot -3.2229 -24.0108
rtoes 17.0871
lfemur -22.292 -5.55618 -6.57676
ltibia 63.3129
lfoot -11.83 17.2901
ltoes -6.34826
249
root 9.16147 17.5153 -7.18913 -13.9078 41.7961 -10.5932
lowerback 11.9373 4.92465 -9.94
upperback 6.19974 5.60446 -4.61304
thorax -0.548428 2.73713 0.00100887
lowerneck 0.863514 -18.1062 -17.2116
upperneck 18.5413 -29.0397 22.5323
head 12.0777 -13.5521 6.65297
rclavicle -7.15625e-015 -3.81667e-014
rhumerus 4.69258 -64.2058 -57.3854
rradius 13.1289
rwrist 35.235
rhand -23.9741 22.795
rfingers 7.12502
rthumb 2.50236 -7.17006
lclavicle -7.15625e-015 -3.81667e-014
lhumerus -29.526 10.1777 46.2849
lradius 58.1917
lwrist 23.7398
lhand -27.098 24.8516
lfingers 7.12502
lthumb -0.514771 54.8307
rfemur -12.2559 -5.10573 13.3504
rtibia 28.2514
rfoot -2.72928 -24.5817
rtoes 17.2346
lfemur -23.1897 -5.06388 -5.88157
ltibia 64.208
lfoot -10.6289 18.2678
ltoes -3.01511
250
root 9.14878 17.5522 -7.09136 -14.3614 41.8467 -11.961
lowerback 11.9384 4.75925 -8.60671
upperback 6.18372 5.51983 -4.27483
thorax -0.495591 2.71365 -0.353305
lowerneck 0.51907 -18.1583 -17.2841
upperneck 18.4876 -28.9097 22.0056
head 11.9892 -13.5022 6.46183
rclavicle 9.85972e-014 -6.36111e-015
rhumerus 4.13426 -64.076 -56.8468
rradius 13.8947
rwrist 33.8683
rhand -24.4711 21.8472
rfingers 7.12502
rthumb 2.02238 -8.12291
lclavicle 9.85972e-014 -6.36111e-015
lhumerus -29.2126 9.66698 47.6616
lradius 57.7031
lwrist 21.851
lhand -24.7545 24.8483
lfingers 7.12502
lthumb 1.74872 54.8209
rfemur -12.1109 -4.96234 14.7524
rtibia 27.5482
rfoot -1.97573 -24.8966
rtoes 15.7426
lfemur -24.5509 -4.51068 -4.78368
ltibia 65.1532
lfoot -9.68792 18.7616
ltoes 0.180928
251
root 9.14239 17.5856 -6.99257 -14.5449 42.2389 -13.0207
lowerback 11.8904 4.56709 -7.4732
upperback 6.14219 5.38448 -4.06937
thorax -0.441832 2.66484 -0.732735
lowerneck 0.508022 -18.2186 -17.0524
upperneck 17.9117 -28.7529 21.5915
head 11.6027 -13.4694 6.30961
rclavicle -4.6118e-014 3.81667e-014
rhumerus 2.40188 -61.7765 -54.8954
rradius 14.4901
rwrist 30.1388
rhand -24.1467 21.4791
rfingers 7.12502
rthumb 2.33572 -8.48782
lclavicle -4.6118e-014 3.81667e-014
lhumerus -28.9688 9.0496 48.872
lradius 57.254
lwrist 19.5785
lhand -23.0209 23.3409
lfingers 7.12502
lthumb 3.42293 53.2932
rfemur -11.967 -5.36972 15.775
rtibia 26.8587
rfoot -1.67912 -25.0618
rtoes 14.4948
lfemur -26.0623 -4.05951 -4.18534
ltibia 66.0174
lfoot -8.54871 18.8527
ltoes 0.871721
252
root 9.13569 17.6304 -6.87798 -14.4832 42.5874 -13.5983
lowerback 11.7405 4.57038 -6.81681
upperback 6.10987 5.4683 -3.8561
thorax -0.369096 2.71456 -0.868321
lowerneck 0.88105 -18.196 -17.2147
upperneck 16.9861 -28.5566 21.6539
head 11.173 -13.4591 6.41984
rclavicle -6.99722e-014 -3.18055e-015
rhumerus 0.248075 -58.2957 -52.2318
rradius 15.0906
rwrist 25.0341
rhand -23.4484 21.4327
rfingers 7.12502
rthumb 3.0101 -8.52584
lclavicle -6.99722e-014 -3.18055e-015
lhumerus -28.7393 8.09725 50.3174
lradius 56.9366
lwrist 16.8776
lhand -21.355 22.3363
lfingers 7.12502
lthumb 5.03155 52.2565
rfemur -11.7603 -5.53132 16.4874
rtibia 26.2484
rfoot -1.91406 -25.3544
rtoes 14.7348
lfemur -27.2658 -3.55332 -4.00297
ltibia 66.6661
lfoot -7.60121 18.5284
ltoes 3.40124
